<svg xmlns="http://www.w3.org/2000/svg" height="800" width="1200" viewBox="-171.47805 -66.13075 1486.1431 396.7845"><defs><linearGradient x1="0" y1="0" x2="1" y2="0" gradientUnits="userSpaceOnUse" gradientTransform="matrix(0 191.52434 191.52434 0 312.557 438.893)" spreadMethod="pad" id="a"><stop offset="0" stop-color="#20b038"/><stop offset="1" stop-color="#60d66a"/></linearGradient><linearGradient x1="0" y1="0" x2="1" y2="0" gradientUnits="userSpaceOnUse" gradientTransform="matrix(0 198.39247 198.39247 0 312.558 435.46)" spreadMethod="pad" id="b"><stop offset="0" stop-color="#f9f9f9"/><stop offset="1" stop-color="#fff"/></linearGradient></defs><path d="M1116.699 160.911c-.711 3.583-1.935 6.71-3.663 9.395a20.322 20.322 0 01-6.807 6.533c-2.797 1.673-6.29 2.513-10.464 2.513-4.058 0-7.518-.84-10.38-2.513-2.866-1.66-5.158-3.847-6.894-6.533-1.72-2.686-2.98-5.812-3.758-9.395a51.418 51.418 0 01-1.16-10.908c0-3.832.366-7.53 1.076-11.101.715-3.582 1.942-6.742 3.668-9.5 1.728-2.738 3.999-4.974 6.802-6.7 2.794-1.73 6.286-2.607 10.468-2.607 4.054 0 7.48.876 10.28 2.607 2.812 1.726 5.102 3.986 6.894 6.794 1.798 2.807 3.079 6.003 3.85 9.578a50.964 50.964 0 011.165 10.93c0 3.687-.363 7.332-1.077 10.907m23.98-29.088c-1.672-6.02-4.235-11.304-7.698-15.84-3.46-4.532-7.805-8.176-13.056-10.916-5.254-2.75-11.522-4.115-18.798-4.115-5.72 0-10.974 1.128-15.742 3.396-4.773 2.27-8.71 5.91-11.812 10.922h-.35v-11.82h-24.162v124.947h25.406v-43.854h.36c3.1 4.54 7.076 7.964 11.9 10.284 4.829 2.327 10.114 3.498 15.842 3.498 6.794 0 12.727-1.323 17.804-3.942 5.063-2.62 9.307-6.146 12.7-10.564 3.408-4.417 5.934-9.482 7.606-15.21 1.678-5.73 2.508-11.696 2.508-17.9 0-6.563-.83-12.855-2.508-18.887m-125.252 29.088c-.723 3.583-1.95 6.71-3.674 9.395-1.73 2.686-3.998 4.873-6.81 6.533-2.795 1.673-6.29 2.513-10.462 2.513-4.061 0-7.506-.84-10.37-2.513-2.868-1.66-5.162-3.847-6.894-6.533-1.73-2.686-2.981-5.812-3.758-9.395a51.157 51.157 0 01-1.158-10.908c0-3.832.348-7.53 1.063-11.101.725-3.582 1.94-6.742 3.676-9.5 1.719-2.738 3.992-4.974 6.804-6.7 2.799-1.73 6.279-2.607 10.461-2.607 4.05 0 7.494.876 10.288 2.607a21.31 21.31 0 016.89 6.794c1.786 2.807 3.068 6.003 3.846 9.578a51.214 51.214 0 011.158 10.93 55.77 55.77 0 01-1.06 10.907m16.276-44.928c-3.455-4.532-7.814-8.176-13.064-10.916-5.252-2.75-11.51-4.115-18.783-4.115-5.733 0-10.979 1.128-15.745 3.396-4.786 2.27-8.711 5.91-11.81 10.922h-.365V103.45h-24.164v124.947h25.427v-43.854h.344c3.098 4.54 7.076 7.964 11.91 10.284 4.82 2.327 10.103 3.498 15.83 3.498 6.805 0 12.736-1.323 17.804-3.942 5.07-2.62 9.306-6.146 12.706-10.564 3.404-4.417 5.928-9.482 7.61-15.21 1.658-5.73 2.504-11.696 2.504-17.9 0-6.563-.846-12.855-2.503-18.887-1.683-6.02-4.241-11.304-7.701-15.84m-167.128 30.61l16.64-46.9h.356l16.108 46.9zm2.68-78.402l-48.311 127.803h28.273l10.015-28.462h47.784l9.655 28.462h29.174L896.072 68.19zm-50.463 87.263a23.025 23.025 0 00-6.62-7.344c-2.743-1.963-5.881-3.548-9.393-4.747a110.21 110.21 0 00-10.832-3.032 416.405 416.405 0 00-10.55-2.332c-3.46-.72-6.538-1.524-9.224-2.413-2.681-.898-4.85-2.054-6.522-3.498-1.676-1.428-2.503-3.274-2.503-5.545 0-1.91.465-3.43 1.425-4.565a9.577 9.577 0 013.492-2.599c1.375-.592 2.886-.977 4.56-1.163 1.67-.176 3.226-.26 4.652-.26 4.536 0 8.474.863 11.82 2.592 3.33 1.731 5.186 5.043 5.538 9.932h24.157c-.477-5.724-1.936-10.465-4.384-14.234-2.441-3.754-5.519-6.768-9.213-9.032-3.692-2.268-7.9-3.876-12.62-4.834-4.712-.956-9.57-1.428-14.572-1.428-5.02 0-9.914.448-14.674 1.334-4.781.9-9.074 2.457-12.886 4.66-3.823 2.206-6.89 5.214-9.222 9.037-2.33 3.817-3.492 8.716-3.492 14.677 0 4.058.843 7.495 2.515 10.296 1.655 2.808 3.873 5.126 6.607 6.978 2.752 1.85 5.885 3.346 9.402 4.472a122.876 122.876 0 0010.82 2.961c9.076 1.912 16.147 3.815 21.212 5.73 5.07 1.906 7.606 4.769 7.606 8.591 0 2.267-.532 4.136-1.608 5.631a12.173 12.173 0 01-4.026 3.581c-1.62.9-3.41 1.56-5.37 1.967-1.968.421-3.852.632-5.64.632-2.506 0-4.92-.301-7.24-.896-2.332-.597-4.39-1.524-6.178-2.777-1.788-1.25-3.257-2.859-4.388-4.834-1.125-1.97-1.704-4.317-1.704-7.069h-24.154c.244 6.205 1.64 11.37 4.213 15.484 2.553 4.117 5.832 7.425 9.836 9.936 3.995 2.501 8.563 4.296 13.697 5.373a76.723 76.723 0 0015.732 1.61c5.252 0 10.412-.512 15.487-1.518 5.07-1.017 9.573-2.778 13.51-5.289 3.946-2.501 7.123-5.812 9.577-9.932 2.438-4.123 3.66-9.223 3.66-15.31 0-4.302-.834-7.9-2.503-10.823M711.759 75.71h-25.415v27.74H670.96v17.003h15.383v54.597c0 4.66.784 8.415 2.33 11.276 1.553 2.86 3.667 5.081 6.349 6.628 2.685 1.552 5.789 2.592 9.309 3.13 3.51.533 7.253.803 11.181.803 2.515 0 5.072-.064 7.702-.172 2.618-.122 5.002-.354 7.154-.722v-19.692c-1.197.242-2.448.43-3.764.537a44.574 44.574 0 01-4.113.185c-4.29 0-7.157-.722-8.592-2.153-1.424-1.428-2.141-4.293-2.141-8.593v-45.824h18.61V103.45h-18.61zm-72.831 84.477c0 1.444-.145 3.352-.448 5.735-.296 2.393-1.103 4.741-2.413 7.07-1.314 2.326-3.348 4.333-6.084 5.995-2.743 1.676-6.62 2.511-11.636 2.511-2.023 0-3.995-.179-5.903-.544-1.912-.352-3.577-.984-5.01-1.876-1.429-.895-2.566-2.119-3.402-3.67-.83-1.551-1.252-3.454-1.252-5.72 0-2.386.423-4.367 1.252-5.911a11.585 11.585 0 013.316-3.85c1.365-1.013 2.979-1.817 4.828-2.42a46.056 46.056 0 015.639-1.429c2.022-.35 4.056-.659 6.078-.896a78.965 78.965 0 005.818-.892 40.933 40.933 0 005.193-1.348c1.61-.537 2.948-1.273 4.024-2.233zm25.408 15.22v-48.145c0-5.617-1.247-10.117-3.76-13.513-2.5-3.404-5.723-6.056-9.655-7.967-3.942-1.908-8.3-3.193-13.07-3.848a103.637 103.637 0 00-14.132-.983c-5.127 0-10.232.503-15.295 1.52-5.083 1.014-9.636 2.718-13.695 5.1a30.34 30.34 0 00-10.016 9.486c-2.633 3.937-4.122 8.89-4.478 14.858h25.406c.478-5.014 2.155-8.597 5.019-10.742 2.861-2.15 6.793-3.218 11.81-3.218 2.262 0 4.377.15 6.35.446 1.964.301 3.696.89 5.19 1.79 1.493.894 2.685 2.143 3.575 3.76.895 1.608 1.343 3.791 1.343 6.528.119 2.634-.66 4.62-2.323 5.995-1.676 1.38-3.938 2.427-6.802 3.133-2.864.723-6.146 1.262-9.846 1.608-3.7.366-7.454.852-11.268 1.44-3.821.6-7.61 1.403-11.36 2.418-3.757 1.008-7.108 2.537-10.026 4.557-2.926 2.039-5.31 4.75-7.164 8.152-1.846 3.403-2.768 7.732-2.768 12.976 0 4.772.804 8.888 2.414 12.345 1.61 3.471 3.846 6.323 6.712 8.594 2.866 2.268 6.203 3.941 10.02 5.018 3.812 1.071 7.93 1.61 12.35 1.61 5.725 0 11.334-.839 16.813-2.502 5.49-1.682 10.268-4.596 14.324-8.778.119 1.55.327 3.077.621 4.565a36.72 36.72 0 001.167 4.383h25.77c-1.191-1.899-2.033-4.766-2.505-8.59-.484-3.817-.721-7.808-.721-11.996m-104.683-63.993c-2.501-3.283-5.933-5.844-10.281-7.699-4.36-1.84-9.937-2.764-16.733-2.764-4.774 0-9.663 1.22-14.68 3.67-5.007 2.44-9.124 6.352-12.343 11.725h-.537V68.191h-25.411v127.803h25.41v-48.508c0-9.426 1.55-16.194 4.654-20.318 3.099-4.112 8.11-6.173 15.032-6.173 6.081 0 10.317 1.879 12.704 5.643 2.387 3.754 3.579 9.456 3.579 17.09v52.266h25.412v-56.92c0-5.724-.512-10.943-1.523-15.666-1.015-4.705-2.775-8.706-5.283-11.993M425.448 156.26h-.353l-21.831-88.068h-26.305l-22.192 86.992h-.356l-20.222-86.992H306.1l33.818 127.803h28.455L389.662 109h.358l21.652 86.994h27.916L473.947 68.19H446.39zM72.73 222.567l3.981 2.36c16.73 9.928 35.91 15.18 55.47 15.19h.042c60.067 0 108.955-48.878 108.98-108.948.01-29.114-11.315-56.487-31.89-77.079-20.578-20.59-47.938-31.939-77.049-31.95-60.114 0-109 48.87-109.025 108.94-.008 20.585 5.75 40.631 16.661 57.978l2.594 4.123-11.012 40.201zM0 264.523l18.602-67.92c-11.474-19.88-17.51-42.43-17.5-65.532C1.13 58.8 59.947.001 132.223.001c35.073.014 67.993 13.665 92.75 38.44 24.754 24.776 38.382 57.71 38.37 92.736-.03 72.268-58.857 131.077-131.12 131.077-.005 0 .003 0 0 0h-.056c-21.944-.01-43.507-5.512-62.657-15.957z" fill="#fff"/><path d="M218.02 535.518c-.006-16.724 4.364-33.053 12.673-47.446l-13.469-49.179 50.327 13.196a94.918 94.918 0 0145.366-11.55h.041c52.321 0 94.91 42.576 94.932 94.904.01 25.359-9.856 49.202-27.781 67.141-17.922 17.938-41.758 27.822-67.155 27.834-52.326 0-94.913-42.572-94.934-94.9m94.938-94.979c-.001 0-.002 0 0 0" fill="url(#a)" transform="matrix(1.33333 0 0 -1.33333 -285.072 845.137)"/><path d="M214.63 535.549c-.006-17.325 4.521-34.239 13.126-49.148l-13.952-50.94 52.132 13.669a98.286 98.286 0 0146.993-11.968h.042c54.197 0 98.317 44.107 98.34 98.308.009 26.27-10.212 50.97-28.777 69.552-18.568 18.581-43.257 28.819-69.563 28.831-54.207 0-98.319-44.099-98.341-98.304m31.045-46.581l-1.946 3.091c-8.183 13.01-12.502 28.046-12.496 43.484.018 45.052 36.684 81.705 81.769 81.705 21.833-.009 42.353-8.52 57.786-23.963 15.433-15.444 23.925-35.974 23.919-57.808-.02-45.054-36.686-81.711-81.736-81.711h-.032c-14.669.008-29.055 3.946-41.602 11.391l-2.986 1.77-30.936-8.111zm67.296-51.806c-.001 0-.002 0 0 0" fill="url(#b)" transform="matrix(1.33333 0 0 -1.33333 -285.072 845.137)"/><path d="M99.451 76.276c-2.454-5.456-5.037-5.565-7.372-5.661-1.91-.082-4.096-.076-6.278-.076-2.186 0-5.735.82-8.736 4.098-3.004 3.28-11.468 11.204-11.468 27.323 0 16.12 11.741 31.696 13.377 33.884 1.639 2.184 22.665 36.32 55.965 49.452 27.676 10.913 33.308 8.743 39.315 8.196 6.007-.545 19.384-7.923 22.113-15.573 2.731-7.65 2.731-14.207 1.912-15.576-.818-1.366-3.004-2.186-6.28-3.823-3.277-1.639-19.384-9.565-22.386-10.659-3.004-1.092-5.188-1.637-7.374 1.643-2.184 3.276-8.458 10.653-10.37 12.839-1.91 2.19-3.823 2.462-7.099.824-3.277-1.644-13.83-5.1-26.347-16.26-9.74-8.684-16.314-19.408-18.226-22.688-1.91-3.276-.204-5.05 1.438-6.684 1.472-1.468 3.278-3.826 4.916-5.738 1.635-1.913 2.18-3.278 3.272-5.464 1.094-2.186.547-4.1-.272-5.738-.82-1.639-7.186-17.84-10.1-24.319" fill="#fff" fill-rule="evenodd"/></svg>